PathFileType	4	(X/Y/Z)	D:\TRACE\v60_Jaco2_6-2-23\JustArmDRS_Motion2_2-v60.trc
DataRate	CameraRate	NumFrames	NumMarkers	Units	OrigDataRate	OrigDataStartFrame	OrigNumFrames
100.00	100.00	      31	9	mm	100.00	5254	      7005
Frame#	Time	front left toe			Front right toe			aft left toe			aft right toe			Arm			FL body			FR body			AL Body			AR Body			
		X1	Y1	Z1	X2	Y2	Z2	X3	Y3	Z3	X4	Y4	Z4	X5	Y5	Z5	X6	Y6	Z6	X7	Y7	Z7	X8	Y8	Z8	X9	Y9	Z9	

5254	52.530	-204.56952	6.22878	-173.69942	203.67110	6.00985	-219.44098	-137.78676	38.42435	429.99789	264.62573	44.57452	417.19998	49.27110	1102.01062	-670.62262	-116.47576	557.12439	-331.96347	43.06699	560.81659	-349.57123	-16.76560	617.46277	605.50879	140.15187	615.46490	590.95874	
5255	52.540	-203.58673	7.06382	-173.64197	204.44810	6.33589	-219.37415	-136.58821	37.66085	430.38498	265.61154	43.76414	417.49039	51.06433	1102.08997	-669.84473	-115.60918	557.25977	-331.55136	43.84875	560.96826	-348.81284	-14.82452	617.18182	606.24451	141.29050	615.04865	591.35712	
5256	52.550	-202.34732	7.06882	-173.41328	205.90097	6.85364	-218.90312	-135.45836	36.87660	430.51370	267.18552	43.31257	417.68170	52.36121	1102.45166	-669.17157	-113.97366	557.53101	-331.17389	45.67620	561.32275	-348.78214	-13.35946	616.79523	606.74097	142.78391	614.26886	591.91449	
5257	52.560	-201.29221	7.49709	-173.01971	206.67853	7.10222	-218.81348	-134.41170	36.19976	430.61682	268.12265	42.45888	417.84991	54.38588	1102.94153	-668.56628	-112.69225	557.87177	-330.87024	46.51905	561.26434	-348.29288	-12.38760	616.49561	606.71417	144.02513	614.12683	591.90326	
5258	52.570	-200.11992	8.15344	-172.91507	208.10309	7.80761	-218.43114	-133.13147	35.46312	431.18121	269.60068	41.71535	418.10220	55.85228	1103.40698	-667.70142	-111.48508	558.32166	-330.71072	47.77282	561.54492	-347.89502	-10.56841	615.95258	607.64771	145.67149	613.48004	592.66296	
5259	52.580	-198.82603	8.02544	-172.59587	208.96561	8.24838	-218.21613	-132.19360	34.74783	431.33276	270.11044	40.97944	418.35541	57.29170	1103.94666	-666.98462	-109.90736	558.34174	-330.14670	49.21152	561.77930	-347.40692	-9.67177	615.41071	607.65259	146.70172	612.99146	593.00690	
5260	52.590	-197.87856	8.69916	-172.11313	210.26587	8.85225	-217.83301	-130.99411	33.97711	431.57523	271.70969	40.17968	418.77655	58.81414	1104.65552	-665.98712	-108.02479	558.65863	-329.41406	51.10450	561.97711	-347.24609	-8.02236	614.89050	608.40503	148.18575	612.39844	593.25470	
5261	52.600	-196.50723	9.12689	-171.94260	211.64009	9.14358	-217.53209	-129.95868	33.16927	432.04373	272.58923	39.22916	419.27457	60.77751	1104.89075	-665.03284	-107.16468	559.03076	-329.30450	51.87308	562.14423	-346.53543	-6.64471	614.28674	609.00702	149.57942	611.39825	593.87488	
5262	52.610	-195.48192	9.30410	-171.74323	212.54085	9.44017	-217.14708	-128.61685	32.42764	432.30273	273.85873	38.71221	419.62051	62.46749	1105.49988	-664.07050	-105.51504	559.35455	-328.62445	53.47938	562.41010	-346.25143	-5.42409	613.55701	609.06952	151.15060	610.99567	594.23572	
5263	52.620	-194.48103	10.15814	-171.38528	213.63063	10.10850	-216.90909	-127.46849	31.47227	432.45883	274.99924	37.73795	419.81769	64.44833	1106.04492	-663.29102	-104.33860	560.02753	-328.29590	54.83755	562.64069	-345.79074	-3.83522	613.04199	609.89923	152.49687	610.02917	594.88257	
5264	52.630	-193.51512	10.66272	-171.24001	214.85008	10.63170	-216.71689	-126.22361	30.67814	432.86932	276.30045	36.76001	420.04004	66.12225	1106.73828	-662.00604	-103.19159	560.20612	-328.08667	56.50717	563.13153	-345.57587	-2.24744	612.30865	610.50171	153.66563	609.42853	595.23187	
5265	52.640	-191.91490	11.07292	-170.84476	216.13780	11.29337	-216.47279	-125.13419	29.79116	433.03226	277.24368	36.14488	420.44049	68.40484	1107.51611	-660.90826	-101.46202	560.60095	-327.46875	58.41988	563.38751	-345.08124	-1.06303	611.82294	611.00415	155.35873	608.89362	595.81293	
5266	52.650	-190.89943	11.56839	-170.58257	217.33850	11.78479	-215.98409	-123.91825	29.05278	433.34332	278.35968	35.07152	420.54895	70.31652	1108.26563	-659.80737	-100.16399	561.04059	-327.03577	59.23332	563.51361	-344.21378	0.62899	611.17566	611.57916	156.95671	608.37744	596.42920	
5267	52.660	-189.58241	11.66872	-170.30443	218.12755	12.12041	-215.63678	-122.82539	28.24911	433.70197	279.86035	34.31786	420.99002	72.01902	1108.93359	-658.58496	-98.58467	561.31848	-326.43857	60.49920	563.92566	-343.81140	2.09269	610.61841	611.91815	158.24500	607.39789	596.87238	
5268	52.670	-188.45139	12.32616	-169.95326	219.52138	12.70126	-215.25145	-121.77922	27.46284	433.96863	280.63599	33.16384	421.24521	73.86091	1109.53857	-657.65851	-97.25864	561.84473	-326.10959	62.14112	564.16461	-343.16483	3.70061	609.80750	612.69458	159.60503	606.33691	597.84625	
5269	52.680	-187.51375	12.62815	-169.57410	220.52296	12.99897	-215.01077	-120.57688	26.53954	434.34000	282.12747	32.42965	421.76352	75.43156	1110.26660	-656.64502	-95.67371	562.02753	-325.44730	64.17605	564.68634	-343.01056	5.08038	609.20398	613.10352	161.06342	605.89551	598.25061	
5270	52.690	-185.88469	13.14982	-169.48206	221.84567	13.50161	-214.67493	-119.51504	25.86033	434.62851	282.85892	31.50101	422.06802	77.53465	1110.51196	-655.48871	-93.67123	562.42096	-324.69070	65.21201	564.94275	-342.14954	6.39860	608.54718	613.77338	162.18047	604.59192	598.77362	
5271	52.700	-185.13815	13.62285	-169.01190	223.07469	14.10702	-214.29529	-118.19981	24.88747	435.14316	284.31119	30.65483	422.48120	79.16178	1111.28455	-654.31873	-92.62531	562.76721	-324.40656	66.58720	565.16467	-341.63849	7.77264	607.85779	614.37488	164.07104	604.33057	599.48822	
5272	52.710	-183.81746	14.02178	-168.66771	224.07368	14.32297	-214.05293	-117.10152	23.97296	435.27802	285.42163	29.62698	422.79840	81.30653	1112.00220	-652.79004	-90.65675	563.39441	-323.78989	68.31840	565.40912	-340.99731	9.19549	607.17285	614.95264	165.42950	603.64960	599.83337	
5273	52.720	-182.41087	14.58218	-168.34335	225.26256	14.87306	-213.58006	-116.17027	23.01487	435.42273	286.50327	28.86998	422.97009	83.38328	1112.89502	-651.35730	-89.45952	563.50555	-323.37451	70.42281	565.66510	-340.83707	10.01242	606.34589	615.06982	166.98587	602.81677	600.50995	
5274	52.730	-181.68187	15.01565	-168.26578	226.49048	15.44137	-213.20535	-114.86250	22.07639	435.97867	287.49008	27.96751	423.23541	85.30790	1113.95398	-649.74316	-88.12984	563.92218	-323.02310	71.10516	565.88440	-340.16342	12.06927	605.64307	616.16632	168.06511	601.71265	601.04218	
5275	52.740	-180.31512	15.58258	-167.80284	227.42686	15.85103	-212.85564	-113.79756	21.33048	436.15128	288.24554	26.76011	423.51794	87.71923	1115.16162	-648.12085	-86.50531	564.33447	-322.55206	72.77435	566.14679	-339.61258	13.63735	604.60956	616.20551	169.33798	600.89008	601.58948	
5276	52.750	-179.06206	15.78062	-167.39778	228.59897	16.47685	-212.40468	-112.64869	20.37220	436.54245	289.86407	26.06393	423.96146	89.51003	1116.34521	-646.46240	-84.95990	564.82257	-322.00345	74.42000	566.32404	-338.80551	14.67596	604.11383	617.08307	171.26488	600.12555	602.25073	
5277	52.760	-178.30861	16.31899	-167.14919	229.62390	16.90688	-212.13802	-111.71971	19.49413	436.92526	290.53571	24.98749	424.23877	91.50462	1117.59375	-644.74884	-82.84914	564.88739	-321.03418	76.24157	566.93274	-338.65198	16.50548	603.09894	617.93219	172.54453	598.63428	602.98047	
5278	52.770	-177.12973	16.88435	-166.77611	230.63966	17.42982	-211.90376	-110.63940	18.59365	437.12701	292.08569	24.34225	424.88574	93.37540	1118.96936	-643.12659	-82.19583	565.76184	-320.85547	77.78821	567.23419	-338.27509	17.95828	602.22083	618.30389	174.10165	597.91846	603.37292	
5279	52.780	-176.03905	17.19069	-166.31664	231.90569	18.11385	-211.46942	-109.63975	17.53402	437.41827	293.05869	23.25096	425.13547	95.36476	1120.15015	-641.29462	-80.66095	566.31024	-320.47067	78.57862	567.66339	-337.27097	18.91059	601.30518	618.50269	175.29190	596.89606	603.83032	
5280	52.790	-175.11613	18.14214	-166.10576	232.79250	18.55551	-211.25493	-108.57341	16.71371	437.63870	294.12979	22.10343	425.43045	97.47243	1121.44727	-639.51495	-79.14199	566.97559	-319.66907	80.12637	568.14099	-336.69653	20.80332	600.28400	619.76074	177.05006	595.74176	604.73364	
5281	52.800	-173.99927	18.42057	-165.61423	234.39340	19.21067	-210.77235	-107.26096	15.58932	438.10733	295.50589	21.28291	425.72195	99.35578	1122.80823	-637.57904	-77.90770	567.47015	-319.16977	81.99885	568.75446	-336.48309	22.50393	599.56049	620.31140	178.69879	594.96002	605.35217	
5282	52.810	-172.72202	18.76056	-165.39482	234.90341	19.61887	-210.46924	-106.33972	14.71673	438.34674	295.96982	20.14469	425.87073	101.38762	1124.40234	-635.69092	-76.10101	568.44000	-318.37683	83.33750	569.42206	-336.12958	24.18999	598.52704	621.05402	180.25104	593.94879	606.30298	
5283	52.820	-171.90587	19.62621	-165.09016	236.05643	20.12696	-210.02928	-105.39146	13.94123	438.55035	297.39420	19.29936	426.30478	103.19408	1125.75854	-633.91583	-75.09444	568.91486	-317.78159	85.37962	570.12866	-335.07831	25.59720	597.79114	621.85315	181.43312	592.85101	606.54993	
5284	52.830	-170.88031	19.88182	-164.75545	237.10023	20.67641	-209.72453	-104.28755	13.02959	439.01044	298.17203	18.13780	426.45743	105.21644	1127.30505	-632.17212	-73.23641	569.69592	-317.05005	85.68970	570.26196	-333.68433	27.14748	596.94672	622.52466	183.17456	591.82983	607.74969	
